<svg xmlns="http://www.w3.org/2000/svg" xml:space="preserve" id="Laag_1" x="0" y="0" style="enable-background:new 0 0 600 262.5" version="1.1" viewBox="0 0 600 262.5">
  <style>
    .st1{fill:#be1622}
  </style>
  <path d="M123.5 45.1c0-.6.2-1.2.6-1.5.4-.4.8-.5 1.3-.5.7 0 1.2.5 1.4 1.4l.1 3.3c1.3-1.6 2.7-3.3 4.1-4.9 1.5-1.7 3-3.1 4.6-4.4 1.6-1.3 3.2-2.4 5-3.2 1.7-.8 3.5-1.2 5.3-1.2 1.1 0 2.2.2 3.4.6 3.8 1.3 6.5 3.2 8 5.8 1.5 2.6 2.3 5.4 2.3 8.4 0 2.5-.4 5-1.1 7.5-.7 2.5-1.6 4.9-2.7 7.2-1.1 2.2-2.3 4.3-3.6 6-1.3 1.8-2.4 3.1-3.5 4-1.2 1-2.8 2-4.7 2.8-1.9.8-3.8 1.3-5.8 1.3-1.3 0-2.6-.2-3.8-.7s-2.4-1.4-3.4-2.6c.1-.6.3-1.1.6-1.5.3-.4.7-.6 1.2-.6s1 .3 1.4.9c.6.2 1.3.4 1.9.5.6.1 1.2.2 1.9.2 1.9 0 3.7-.5 5.3-1.6 1.7-1.1 3.2-2.4 4.5-4 1.3-1.6 2.5-3.3 3.4-5.1.9-1.8 1.7-3.5 2.2-5.1.5-1.4.8-2.7 1-4.1.2-1.4.3-2.7.3-3.9 0-2.9-.6-5.3-1.8-7.1-1.2-1.8-2.9-2.8-5.2-2.8-1.8 0-3.6.5-5.4 1.5-1.9 1-3.6 2.2-5.3 3.8-1.7 1.6-3.3 3.3-4.8 5.3s-2.9 4-4 6c.3 2.9.6 5.6.8 7.9.2 2.3.3 4.7.3 7.2 0 3.2-.2 6.3-.6 9.4-.4 3.1-1.1 5.8-2 8.3-.9 2.4-2 4.4-3.4 5.9s-3 2.2-5 2.2c-2.6 0-4.4-1-5.3-3.1-.9-2.1-1.4-5-1.4-8.7 0-2.1.1-4 .3-5.8.2-1.8.4-3 .7-3.8.6-2.1 1.4-4.2 2.2-6.2.8-2 1.8-3.9 2.7-5.8 1-1.9 2-3.9 3.1-5.8 1.1-2 2.2-4 3.4-6.2-.1-1.2-.1-2.4-.1-3.6-.3-1.2-.4-2.4-.4-3.6zm.1 33.8c.1-1.3.1-2.5.2-3.5s.1-2 .2-3c.1-.9.1-1.9.2-2.8.1-.9.1-2 .1-3.1v-2.9c-.8 1.9-1.7 3.8-2.7 5.8-.9 2-1.8 4-2.6 6.1-.8 2.1-1.4 4.2-1.9 6.3-.5 2.1-.8 4.3-.8 6.4 0 1.6.2 2.7.5 3.4.3.7.7 1.1 1.2 1.1s1-.4 1.7-1.2c.6-.8 1.3-1.8 1.8-3.1.6-1.3 1-2.7 1.5-4.4.2-1.5.4-3.3.6-5.1zm26.4 8.4h-.3c-.5 0-.9-.2-1.2-.5-.3-.4-.4-.8-.4-1.2 0-.6.2-1.1.7-1.5.6-1 1.3-2.5 2.3-4.5.9-1.9 1.9-4 2.9-6 1-2.1 1.9-4 2.8-5.9.9-1.9 1.6-3.2 2.1-4 .5-.5 1.1-.8 1.9-.8.6 0 1.2.2 1.9.6 1.3 1.8 2.4 3.3 3.3 4.5.9 1.3 1.7 2.4 2.2 3.5.6 1.1 1 2.1 1.3 3.1.3 1 .4 2.1.4 3.3 0 1.4-.2 3-.5 4.8-.4 1.8-.8 4-1.3 6.7 1.6-.3 3.1-.8 4.6-1.4l4.5-1.8c.3-.1.5-.2.8-.2.5 0 .9.2 1.2.5.3.3.4.7.4 1.1 0 .5-.5 1.1-1.5 1.8s-2.1 1.4-3.5 2.1c-1.3.7-2.7 1.4-4.1 2-1.4.6-2.6 1.1-3.4 1.4h-1c-1.2 0-2.1-.6-2.8-1.7-.7-1.1-1-2.2-1-3.2 0-1.1.2-2.2.5-3.3.3-1.1.6-2.2.7-3.3.2-1.4.3-2.7.3-3.9 0-1.8-.2-3.4-.7-4.9-.5-1.5-1.2-3.1-2.3-4.9-.3.4-.7 1.1-1.2 2-.5.9-1.1 2-1.7 3.3-.6 1.2-1.3 2.5-2 3.8-.7 1.3-1.4 2.6-2.1 3.8-.7 1.2-1.3 2.2-1.9 3-.9 1-1.5 1.5-1.9 1.7z"/>
  <path d="M194.7 72.1c-.7 1.4-1.3 2.7-2.1 4.1-.7 1.4-1.6 2.6-2.5 3.8-.9 1.2-2 2.2-3.1 3.1-1.1.9-2.4 1.5-3.8 1.9 0 1.4.2 2.7.6 4 .4 1.3 1.2 2 2.4 2 .3 0 .7 0 1-.1.4-.1.8-.3 1.2-.6.4-.2 1-.6 1.7-1.1.7-.5 1.6-1.1 2.4-1.8.9-.7 1.7-1.4 2.5-2.2.8-.8 1.4-1.6 1.8-2.5.2-.5.5-.7.9-.7.5 0 .9.2 1.3.6.4.4.6.8.6 1.4 0 .5-.4 1.2-1.2 2.1-.8 1-1.7 2-2.7 3-1 1-2 2-3.1 2.9-1.1.9-1.9 1.5-2.5 1.8-.2.1-.8.4-1.7.9-.9.5-1.7.8-2.4.8-1.4 0-2.7-.3-3.7-.9-1-.6-1.9-1.4-2.6-2.3-.7-1-1.2-2.1-1.5-3.4-.3-1.3-.5-2.6-.5-3.9-.4-.2-.6-.6-.6-1.1 0-.5.2-.8.5-1.2 0-.8 0-1.6.1-2.4.1-.8.2-1.6.5-2.5.4-1.4.9-3 1.6-4.9.7-1.9 1.5-3.7 2.6-5.4 1-1.7 2.3-3.2 3.7-4.4 1.4-1.2 3.1-1.8 4.9-1.8 1.8 0 3.1.6 3.7 1.8.6 1.2 1 2.6 1 4.1 0 .9-.1 1.8-.2 2.7-.2 1-.5 1.7-.8 2.2zM190 68c-.7.5-1.3 1.3-1.9 2.3-.7 1-1.2 2.1-1.8 3.3l-1.5 3.6c-.5 1.2-.8 2.4-1.1 3.4.8-.7 1.8-2.1 2.9-4.1.3-.5.6-1 1-1.7s.7-1.4 1.1-2.2l.9-2.4c.3-.8.4-1.6.4-2.2zm15.2 10.8c.2-2.1.4-4.2.7-6.3.3-2 .7-4.1 1.1-6.2-2.3.5-4 1-5 1.4-1 .4-1.8.6-2.3.6-.8 0-1.2-.5-1.2-1.6 0-1 .6-1.9 1.9-2.8 1.3-.9 2.7-1.7 4.4-2.4 1-.9 1.9-1.7 2.4-2.5.6-.7 1.1-1.5 1.5-2.3.4-.8.7-1.7 1-2.7.3-1 .6-2.1 1-3.5.2-.6.4-1.5.7-2.9.3-1.3.7-2.7 1.2-4 .5-1.4 1.1-2.6 1.8-3.6s1.6-1.6 2.6-1.6 1.6.5 1.6 1.5c0 .5-.1 1.3-.3 2.2-.2.9-.5 2.2-.8 3.7-.4 1.5-.8 3.3-1.3 5.5s-1 4.8-1.6 7.7h6.3c1 0 2 0 2.9.1.9.1 1.7.3 2.4.5.6.3 1 .7 1 1.3 0 .6-.6 1.1-1.7 1.5-1.1.4-2.5.7-4 1.1-1.5.3-3.1.6-4.6.9-1.6.3-2.8.6-3.6.9-.7 3.1-1.3 6.4-1.9 10-.5 3.5-.8 6.9-.8 10v1.6c0 .7.1 1.3.1 2s.1 1.3.2 1.8.2.7.4.7c.7 0 2.2-1.1 4.4-3.2s4.6-5.1 7.2-9.1c.3-.3.7-.5 1.2-.5s.8.1 1.2.4c.3.3.5.7.5 1.1 0 .3-.2.7-.5 1.2-.9 1.8-2 3.6-3.3 5.5-1.3 1.9-2.6 3.6-3.9 5.1-1.4 1.5-2.7 2.7-4.1 3.7-1.4 1-2.6 1.5-3.8 1.5-1.1 0-2-.4-2.7-1.2-.7-.8-1.2-1.7-1.7-2.8-.4-1.1-.7-2.3-.9-3.5-.2-1.2-.2-2.3-.2-3.3 0-1.3 0-2.6.1-3.8.2-1.4.3-2.6.4-3.7z"/>
  <path d="M227.8 78.8c.2-2.1.4-4.2.7-6.3.3-2 .7-4.1 1.1-6.2-2.3.5-4 1-5 1.4-1 .4-1.8.6-2.3.6-.8 0-1.2-.5-1.2-1.6 0-1 .6-1.9 1.9-2.8 1.3-.9 2.7-1.7 4.4-2.4 1-.9 1.9-1.7 2.4-2.5.6-.7 1.1-1.5 1.5-2.3.4-.8.7-1.7 1-2.7.3-1 .6-2.1 1-3.5.2-.6.4-1.5.7-2.9.3-1.3.7-2.7 1.2-4 .5-1.4 1.1-2.6 1.8-3.6s1.6-1.6 2.6-1.6 1.6.5 1.6 1.5c0 .5-.1 1.3-.3 2.2-.2.9-.5 2.2-.8 3.7-.4 1.5-.8 3.3-1.3 5.5s-1 4.8-1.6 7.7h6.3c1 0 2 0 2.9.1.9.1 1.7.3 2.4.5.6.3 1 .7 1 1.3 0 .6-.6 1.1-1.7 1.5-1.1.4-2.5.7-4 1.1-1.5.3-3.1.6-4.6.9-1.6.3-2.8.6-3.6.9-.7 3.1-1.3 6.4-1.9 10-.5 3.5-.8 6.9-.8 10v1.6c0 .7.1 1.3.1 2s.1 1.3.2 1.8.2.7.4.7c.7 0 2.2-1.1 4.4-3.2s4.6-5.1 7.2-9.1c.3-.3.7-.5 1.2-.5s.8.1 1.2.4c.3.3.5.7.5 1.1 0 .3-.2.7-.5 1.2-.9 1.8-2 3.6-3.3 5.5-1.3 1.9-2.6 3.6-3.9 5.1-1.4 1.5-2.7 2.7-4.1 3.7-1.4 1-2.6 1.5-3.8 1.5-1.1 0-2-.4-2.7-1.2-.7-.8-1.2-1.7-1.7-2.8-.4-1.1-.7-2.3-.9-3.5-.2-1.2-.2-2.3-.2-3.3 0-1.3 0-2.6.1-3.8.1-1.4.2-2.6.4-3.7z"/>
  <path d="M247.8 69.5c.1-.5.3-.9.6-1.2.3-.3.6-.4 1-.4 1 0 1.6.7 1.6 2.2 0 1.9-.1 3.8-.4 5.7-.3 1.9-.4 3.8-.4 5.8v2c0 .6.1 1.3.3 2 1.6-1.3 2.9-2.7 3.8-4.2.9-1.5 1.7-3.1 2.4-4.8.6-1.7 1.2-3.4 1.7-5.2.5-1.8 1.1-3.5 1.8-5.4.6-1.1 1.5-1.7 2.6-1.7s1.8.5 2.1 1.4c.3.9.5 2.2.5 3.8 0 1.8 0 3.5-.1 5.3-.1 1.8-.1 3.5-.1 5.3V82c1.8-1 3.6-1.9 5.7-2.8 2-.9 3.9-1.3 5.8-1.3.8 0 1.5.1 2.1.4s.9.9.9 1.7c0 .7-.2 1.3-.5 1.6-.4.4-.7.5-1.1.5-.7 0-1.2-.3-1.4-1h-.6c-1.9.5-3.7 1.3-5.5 2.2-1.8.9-3.5 2-5.1 3.1v5.7c0 4.1-.2 8.1-.6 12.1-.4 4-1.3 8-2.6 12.1-.5 1.4-1 2.9-1.8 4.3-.7 1.5-1.6 2.8-2.5 4-1 1.2-2.1 2.2-3.4 3-1.3.8-2.7 1.2-4.2 1.2-1.7 0-3.2-.4-4.4-1.2s-2.4-1.8-3.3-3c-.9-1.2-1.6-2.6-2-4.2-.5-1.6-.7-3.1-.7-4.6 0-3.4.5-6.6 1.6-9.6 1-3 2.5-5.7 4.2-8.1 1.8-2.5 3.9-4.7 6.2-6.8 2.4-2.1 4.9-4 7.6-5.8v-1.9c0-.6 0-1.2.1-1.8-.1 0-.2.2-.5.6-.3.4-.6.9-.9 1.5s-.7 1.1-1.1 1.7c-.4.5-.7.9-.9 1.1l-3.6 2.5c-.7.5-1.4.7-2.1.7-.9 0-1.6-.2-2.2-.6-.6-.4-1-1-1.3-1.7-.3-.7-.5-1.4-.6-2.3-.1-.8-.1-1.7-.1-2.5 0-2.3.2-4.5.7-6.8s.6-4.3.7-6.5zm11.5 32.1c.2-2.5.3-5 .3-7.5v-3.2c-4.2 3.3-7.5 7-9.9 11-2.4 4-3.8 8.4-4 13.2 0 .6.1 1.3.2 2.2.2.9.4 1.8.8 2.6s.8 1.5 1.4 2.1c.6.6 1.3.9 2.1.9.9 0 1.7-.3 2.3-.9.6-.6 1.2-1.4 1.7-2.2.5-.9.9-1.8 1.3-2.7.4-.9.6-1.7.8-2.4.6-1.8 1.2-3.8 1.8-6 .5-2.3.9-4.6 1.2-7.1z"/>
  <path d="M49.4 124.3c0-1.1.3-2 1-2.6.7-.6 1.4-.9 2.2-.9 1.2 0 2 .8 2.3 2.3l.2 5.7c2.2-2.8 4.6-5.6 7.1-8.4 2.5-2.8 5.1-5.4 7.9-7.6 2.7-2.2 5.6-4 8.5-5.4 3-1.4 6-2.1 9.1-2.1 1.9 0 3.8.3 5.9 1 6.6 2.2 11.2 5.5 13.8 10 2.6 4.4 3.9 9.2 3.9 14.5 0 4.2-.6 8.5-1.8 12.9-1.2 4.3-2.8 8.4-4.7 12.3-1.9 3.8-3.9 7.3-6.1 10.4-2.2 3.1-4.2 5.4-5.9 6.9-2.1 1.8-4.8 3.4-8.1 4.9-3.3 1.4-6.6 2.2-10 2.2-2.2 0-4.4-.4-6.6-1.3-2.2-.9-4.1-2.3-5.8-4.4.1-1 .4-1.9 1-2.5.6-.7 1.2-1 2-1 .9 0 1.7.5 2.3 1.5 1.1.3 2.2.6 3.2.8 1 .2 2.1.3 3.2.3 3.2 0 6.3-.9 9.1-2.7 2.8-1.8 5.4-4.1 7.7-6.8s4.2-5.6 5.9-8.8c1.6-3.1 2.9-6 3.8-8.7.8-2.3 1.3-4.7 1.7-7 .3-2.3.5-4.6.5-6.7 0-5-1-9.1-3.1-12.3-2.1-3.2-5-4.8-9-4.8-3 0-6.1.8-9.3 2.5-3.2 1.7-6.2 3.8-9.1 6.5-2.9 2.7-5.7 5.7-8.3 9.1-2.6 3.4-4.9 6.8-6.9 10.3.6 5 1 9.5 1.3 13.6s.5 8.1.5 12.4c0 5.5-.4 10.8-1.1 16.1-.7 5.3-1.9 10-3.4 14.2-1.6 4.2-3.5 7.6-5.9 10.1-2.3 2.6-5.2 3.8-8.5 3.8-4.5 0-7.5-1.8-9.1-5.4-1.6-3.6-2.4-8.5-2.4-14.9 0-3.6.2-6.9.5-9.9s.7-5.2 1.2-6.5c1.1-3.7 2.4-7.2 3.8-10.6s3-6.7 4.7-10c1.7-3.3 3.5-6.6 5.4-10 1.9-3.4 3.8-6.9 5.9-10.6-.1-2.1-.2-4.2-.2-6.2-.1-2-.2-4.1-.3-6.2zm.2 58a600.757 600.757 0 0 1 .6-11.1c.1-1.6.2-3.2.3-4.9.1-1.6.2-3.4.2-5.3 0-.8 0-1.6-.1-2.3-.1-.8-.1-1.6-.1-2.5-1.4 3.2-3 6.6-4.6 10-1.6 3.4-3.1 6.9-4.4 10.5-1.3 3.6-2.5 7.2-3.3 10.9-.9 3.7-1.3 7.4-1.3 11 0 2.7.3 4.6.8 5.9.6 1.2 1.2 1.8 2 1.8s1.7-.7 2.8-2c1.1-1.3 2.1-3.1 3.1-5.3.9-2.2 1.8-4.7 2.5-7.6.8-2.9 1.3-5.9 1.5-9.1zm58.2-1c.8-5.4 1.6-10.7 2.3-16.1.8-5.4 1.7-10.8 2.8-16.1 1.1-5.4 2.3-10.6 3.9-15.8s3.4-10.2 5.6-15.1c1.1-2.5 2.5-5 4-7.7 1.6-2.7 3.3-5.1 5.4-7.3 2-2.2 4.2-4 6.6-5.4s5-2.2 7.8-2.2c3.6 0 6.6 1.3 9.1 3.9 2.5 2.6 3.8 6.1 3.8 10.3 0 6.2-1.1 12.1-3.4 17.5s-5.2 10.5-8.8 15.1c-3.6 4.7-7.6 9-12 13s-8.7 7.8-13 11.4l-1.5 1.2c-.6 3.2-1.1 6.5-1.5 9.7-.4 3.2-.8 6.5-1.2 9.7.6-.7 1.3-1.6 2.3-2.7.9-1.1 2-2.2 3.1-3.2s2.3-1.9 3.4-2.6c1.2-.7 2.2-1.1 3.1-1.1.6 0 1.1.1 1.5.2 2.6 1.1 4.3 2.6 5.1 4.4.8 1.8 1.3 3.9 1.5 6.2.2 2.3.3 4.7.3 7.1 0 2.5.3 4.9 1 7.4.3 0 .6.1.7.2.9-.8 2-1.7 3.3-2.7 1.3-1 2.4-1.5 3.3-1.5 1.8 0 2.7.9 2.7 2.7 0 .6-.3 1.3-1 2.2-.7.9-1.5 1.8-2.5 2.7-1 .9-2.1 1.6-3.3 2.3-1.2.6-2.3.9-3.3.9-2 0-3.6-1-4.7-3.1s-2-4.5-2.5-7.2c-.6-2.7-1-5.4-1.2-7.9-.2-2.6-.5-4.3-.8-5.4-1.9 1.6-3.5 3.3-4.7 5.3-1.2 1.9-2.3 4-3.3 6-1 2.1-2 4.2-3.1 6.3-1.1 2.1-2.4 4.1-3.9 5.9-1 .7-2 1-3 1-1.1 0-2-.4-2.8-1.1-.7-.7-1.3-1.7-1.7-2.8-.4-1.2-.6-2.4-.7-3.8-.1-1.3-.2-2.7-.2-4 0-3 .2-6 .6-9.1.2-3.3.6-6.1.9-8.7zm20.2-47c-1.2 3.9-2.3 7.8-3.3 11.5-.9 3.8-1.8 7.6-2.6 11.5l3.7-3.5c3-3 5.9-6.2 8.8-9.4 2.8-3.3 5.4-6.7 7.5-10.3 2.2-3.6 3.9-7.3 5.3-11.3 1.3-4 2-8.2 2-12.8 0-1.1-.4-2-1.1-2.7-.7-.7-1.6-1-2.8-1-2.1 0-4.1 1-5.9 3-1.8 2-3.5 4.4-4.9 7.3-1.4 2.8-2.7 5.9-3.9 9.1-1 3.3-2 6.2-2.8 8.6z" class="st1"/>
  <path d="M166.9 168.1c0 .1.1.2.2.3 4.9-2.2 10.1-4.1 15.5-5.7s10.7-3 15.8-4.2c2.1 0 3.2.9 3.2 2.7 0 1-.6 1.8-1.7 2.5-3.6 1.4-7.1 2.9-10.5 4.4-3.5 1.5-6.9 3.1-10.4 4.8 1 1.7 1.5 3.6 1.5 5.7 0 1.7-.4 3.8-1.2 6.4-.8 2.6-1.9 5.2-3.3 7.8-1.4 2.6-3.2 4.9-5.3 7.1-2.1 2.2-4.5 3.8-7.2 4.8-1.1.4-2.3.7-3.6.7-1.3 0-2.6.1-3.9.3-1.9-.2-3.7-1.4-5.3-3.6-1.6-2.2-2.4-4.8-2.4-7.8 0-2.3.5-5.2 1.6-8.6 1.1-3.4 2.4-6.7 3.9-9.9 1.6-3.2 3.2-5.9 4.9-8.2s3.3-3.4 4.8-3.4c1 0 1.8.5 2.5 1.5l.8 2.2v.2zm-1.4 10.2c-1.9-1-3-2.3-3.3-3.8-1.6 3.2-2.6 6.7-3.2 10.3-.6 3.6-.8 7.2-.8 10.6 1.8-.2 3.4-1.1 4.9-2.8 1.4-1.6 2.7-3.4 3.7-5.3s1.8-3.7 2.4-5.4.9-2.6.9-2.8v-.3c-.7-.2-1.4-.3-2.3-.3-1 .1-1.7.1-2.3-.2z" class="st1"/>
  <path d="M196.1 182.2c.3-3.7.7-7.3 1.3-10.8.5-3.5 1.1-7.1 1.9-10.6-4 .9-6.9 1.7-8.6 2.3-1.7.7-3 1-3.9 1-1.3 0-2-.9-2-2.7 0-1.7 1.1-3.3 3.3-4.8 2.2-1.5 4.7-2.9 7.6-4.1 1.8-1.6 3.2-3 4.2-4.3 1-1.3 1.8-2.6 2.5-4s1.2-2.9 1.7-4.6c.4-1.7 1-3.7 1.7-6 .3-1 .8-2.6 1.3-4.9.5-2.3 1.2-4.6 2-6.9.8-2.3 1.9-4.4 3.1-6.2 1.2-1.8 2.7-2.7 4.5-2.7s2.7.8 2.7 2.5c0 .9-.2 2.1-.5 3.8-.3 1.6-.8 3.7-1.4 6.3-.6 2.6-1.3 5.7-2.2 9.5-.8 3.7-1.8 8.2-2.8 13.3 1.1 0 2.2 0 3.2-.1s2-.1 3-.1h4.4c1.7 0 3.4.1 5 .3 1.6.2 3 .5 4.1.9 1.1.4 1.7 1.2 1.7 2.2 0 1-1 1.8-2.9 2.5-2 .7-4.2 1.3-6.9 1.8-2.6.6-5.3 1.1-8 1.6s-4.7 1-6.2 1.6c-1.2 5.4-2.3 11.1-3.2 17.1s-1.3 11.8-1.3 17.1c0 .7 0 1.6.1 2.7s.1 2.3.2 3.4c.1 1.2.2 2.2.3 3 .2.8.4 1.3.8 1.3 1.2 0 3.8-1.8 7.6-5.4 3.8-3.6 7.9-8.8 12.3-15.6.6-.6 1.2-.8 2-.8s1.4.3 2 .7c.6.5.8 1.2.8 1.9 0 .6-.3 1.2-.8 2-1.6 3-3.4 6.1-5.6 9.4-2.2 3.2-4.4 6.1-6.8 8.7-2.3 2.6-4.7 4.7-7 6.4-2.3 1.7-4.5 2.5-6.5 2.5-1.9 0-3.4-.7-4.6-2-1.2-1.3-2.1-3-2.8-4.9-.7-1.9-1.2-3.9-1.5-6-.3-2.1-.4-4-.4-5.7 0-2.2.1-4.4.3-6.5-.1-2.2.1-4.2.3-6.1z" class="st1"/>
  <path d="M243.1 168.1c0 .1.1.2.2.3 4.9-2.2 10.1-4.1 15.5-5.7 5.4-1.6 10.7-3 15.8-4.2 2.1 0 3.2.9 3.2 2.7 0 1-.6 1.8-1.7 2.5-3.6 1.4-7.1 2.9-10.5 4.4-3.5 1.5-6.9 3.1-10.4 4.8 1 1.7 1.5 3.6 1.5 5.7 0 1.7-.4 3.8-1.2 6.4-.8 2.6-1.9 5.2-3.3 7.8-1.4 2.6-3.2 4.9-5.3 7.1-2.1 2.2-4.5 3.8-7.2 4.8-1.1.4-2.3.7-3.6.7-1.3 0-2.6.1-3.9.3-1.9-.2-3.7-1.4-5.3-3.6-1.6-2.2-2.4-4.8-2.4-7.8 0-2.3.5-5.2 1.6-8.6 1.1-3.4 2.4-6.7 3.9-9.9 1.6-3.2 3.2-5.9 4.9-8.2s3.3-3.4 4.8-3.4c1 0 1.8.5 2.5 1.5l.8 2.2v.2zm-1.3 10.2c-1.9-1-3-2.3-3.3-3.8-1.6 3.2-2.6 6.7-3.2 10.3-.6 3.6-.8 7.2-.8 10.6 1.8-.2 3.4-1.1 4.9-2.8 1.4-1.6 2.7-3.4 3.7-5.3s1.8-3.7 2.4-5.4.9-2.6.9-2.8v-.3c-.7-.2-1.4-.3-2.3-.3-1 .1-1.7.1-2.3-.2z" class="st1"/>
  <path d="M286.6 168.1c0 1.8-1.1 2.7-3.3 2.7-2.5 0-4.5-.4-6.2-1.3-1.7-.8-3-1.9-4-3.3s-1.7-3-2.1-4.8c-.4-1.8-.6-3.6-.6-5.5 0-4.3.7-8.8 2-13.3s3.2-8.9 5.5-13c2.3-4.2 5.1-8.1 8.2-11.7 3.1-3.6 6.5-6.7 10.2-9.3 1.6-1.1 3.1-1.9 4.6-2.3 1.5-.4 3-.7 4.6-.7 2.2 0 4.3.5 6.4 1.6 2 1.1 3.7 2.4 5.2 4 1.4 1.6 2.6 3.4 3.4 5.4s1.3 3.9 1.3 5.7c0 .9-.1 1.5-.2 1.8 3.8-2.2 7.6-3.9 11.4-4.9 3.8-1.1 7.4-1.6 10.7-1.6 5.8 0 10.7 1.6 14.6 4.7 3.9 3.1 5.9 7.9 5.9 14.4 0 3.3-.8 6.6-2.3 9.7-1.6 3.1-3.6 6.1-6.1 8.9-2.5 2.8-5.3 5.5-8.4 8-3.1 2.6-6.2 4.9-9.2 7-3 2.1-5.9 4-8.5 5.8s-4.9 3.2-6.5 4.4l-1.7 1c2.3 2 4.9 3.8 7.7 5.4 2.8 1.6 5.7 3.2 8.6 4.6 3 1.4 5.9 2.8 8.7 4.1 2.8 1.3 5.5 2.5 7.9 3.8 1 .7 1.5 1.4 1.5 2.3 0 .8-.3 1.4-.8 2-.5.6-1.2.8-2.1.8-.7 0-1.2-.1-1.5-.3-4.9-1.6-10-3.8-15.4-6.8s-10.6-5.8-15.7-8.6c-.7-.3-1.4-.7-2.2-1.2-.8-.4-1.5-1-2.3-1.6-.7-.6-1.4-1.3-1.9-2-.6-.7-.8-1.5-.8-2.4 0-1.1.3-2.1.8-2.9.6-.8 1.2-1.6 2-2.2.8-.6 1.6-1.2 2.6-1.7.9-.5 1.9-1 2.8-1.6 3.5-2.2 7.1-4.8 11-7.7 3.8-2.9 7.4-6 10.5-9.3 3.2-3.3 5.8-6.7 7.9-10.1 2.1-3.5 3.1-6.9 3.1-10.2 0-2.7-.8-4.9-2.5-6.8-1.7-1.8-4.3-2.8-8-2.8-4 0-7.5.8-10.5 2.4-3 1.6-5.5 3.7-7.6 6.2-2.1 2.5-3.9 5.3-5.4 8.4-1.4 3.1-2.7 6.1-3.8 9.1-1.9 5-3.9 10.8-5.9 17.5-2 6.6-4 13.4-5.9 20.2-2 6.8-3.8 13.4-5.7 19.7-1.8 6.4-3.5 11.7-5.1 16.1-.1-.1-.2-.2-.3-.2v.2c-1.3 1.7-2.9 2.5-4.7 2.5-1.3 0-2.5-.5-3.5-1.6s-1.5-2.4-1.5-4.1v-1.5c1.8-7 3.8-13.9 6.1-20.7 2.3-6.7 4.5-13.6 6.8-20.5 1.8-7.1 3.8-13.8 6.2-19.9l1.7-5.9c.7-2.1 1.3-4.5 1.9-7.1s1.2-5.3 1.7-8 .9-5.5 1.3-8.3c.4-2.8.6-5.4.6-7.9 0-3-.4-5.1-1.3-6.2-.8-1.1-2.3-1.7-4.4-1.7-2.7 0-5.3 1-7.9 3.1-2.6 2.1-4.9 4.6-7.1 7.6-2.2 3-4.1 6.2-5.8 9.5-1.7 3.3-3 6.3-4 8.9-.6 1.5-1.1 3.3-1.8 5.6s-.9 4.5-.9 6.8c0 2.5.5 4.5 1.6 6.3s3.1 2.6 6.1 2.6h1c.8.9 1.3 1.7 1.3 2.7zm80.1-.1c1.3-1.7 2.5-2.5 3.5-2.5 1.2 0 1.8 1.1 1.8 3.2-.9 5.5-1.8 10.5-2.6 15.2-.8 4.7-1.3 8.5-1.3 11.4 0 3.1.6 4.7 1.8 4.8.8.3 1.7.5 2.7.5 2.7 0 5.7-.8 9-2.3 3.3-1.6 6.2-3.6 8.5-6 .7-.2 1.2-.3 1.5-.3.8 0 1.4.3 2 .8.6.6.8 1.2.8 2 0 .6-.3 1.2-.8 2-5.7 4.7-10.6 7.9-14.7 9.8-4.1 1.8-7.6 2.8-10.5 2.8-3.3 0-5.8-1.1-7.3-3.3-1.5-2.2-2.3-4.9-2.3-8.3 0-6.1.8-11.6 2.5-16.3 1.9-4.8 3.7-9.3 5.4-13.5zm10.9-30.5c.6.9.8 1.7.8 2.5 0 1-.3 1.9-.9 2.6-.6.7-1.4 1.1-2.3 1.1s-1.7-.4-2.4-1.3c-.7-.8-1.1-1.6-1.1-2.4 0-.9.3-1.7 1-2.3.7-.7 1.4-1 2.3-1 1.1 0 2 .3 2.6.8z" class="st1"/>
  <path d="M428.3 136.2c-3 4.9-6.5 9.5-10.5 13.6-4 4.2-8.1 8.2-12.3 12.1l-.7 4.5c1.9-2.2 4-4.1 6.4-5.7 2.3-1.6 4.6-2.3 6.9-2.3 1 0 2.1.3 3.4.8 1.3.6 2.5 1.5 3.5 2.8 1.1 1.3 2 2.9 2.8 4.9.8 2 1.2 4.3 1.2 7.1 0 3.8-.7 7.9-2 12.2-1.3 4.3-3.1 8-5.4 10.9 1.8-.3 3.5-.6 5.2-.9 1.7-.3 3.4-.6 5.2-.9 2.1 0 3.2.9 3.2 2.7 0 .9-.8 1.7-2.4 2.3-1.6.7-3.5 1.3-5.8 1.8-2.2.5-4.5.9-6.9 1.3-2.3.3-4.2.6-5.5.8-3 2-6 3-9 3-.8 0-1.6 0-2.3-.1-.8-.1-1.6-.1-2.3-.3-.9 2.2-1.8 3.7-2.8 4.5-1 .8-2.1 1.2-3.3 1.2-1.2 0-2.5-.5-3.8-1.6-1.3-1.1-1.9-3-1.9-5.9 0-3.5.4-8.5 1.2-15.2.8-6.7 1.9-14 3.3-21.9 1.4-7.9 3.2-16 5.4-24.3 2.1-8.3 4.5-15.8 7.3-22.5 2.7-6.7 5.7-12.3 9-16.6 3.3-4.3 6.9-6.4 10.8-6.4 2.7 0 5 1 7 3s3 4.5 3 7.4c0 5-.6 9.8-1.8 14.5-1.5 4.5-3.4 8.9-6.1 13.2zm-11 31.8c-.7 0-1.8 1.4-3.3 4.1-1.6 2.7-3.2 5.9-4.9 9.4s-3.1 6.9-4.3 10.3c-1.2 3.3-1.8 5.6-1.8 6.9 0 .3.1.6.2.7l6.5-.8c1-.6 2.1-1.4 3.3-2.7 1.2-1.2 2.4-2.8 3.4-4.8 1.1-2 2-4.2 2.7-6.9.7-2.6 1.1-5.6 1.1-9 0-1.7-.2-3.1-.6-4.4-.4-1.3-1.1-2.2-2.1-2.8h-.2zm-13.9 27.4c0-.1 0-.2.1-.3.1-.1.1-.1.1-.3l-.2.3c0 .1-.1.2-.2.2h.2zm22.2-87.8c-2.6 2.1-4.8 4.8-6.8 8s-3.6 6.8-5 10.7c-1.4 3.9-2.6 8-3.7 12.3-1.1 4.3-2 8.6-2.8 12.8 2.7-2.9 5.2-5.9 7.7-8.9s4.6-6.2 6.5-9.5c1.2-2.1 2.2-4.1 2.8-5.9.7-1.8 1.2-3.6 1.5-5.4.3-1.7.6-3.5.7-5.4.1-1.9.2-4 .3-6.2-.1-.3-.2-.9-.2-1.7 0-.3-.1-.7-.2-1-.2 0-.5.1-.8.2zm50.7 28.6c-3 4.9-6.5 9.5-10.5 13.6-4 4.2-8.1 8.2-12.3 12.1l-.7 4.5c1.9-2.2 4-4.1 6.4-5.7 2.3-1.6 4.6-2.3 6.9-2.3 1 0 2.1.3 3.4.8 1.3.6 2.5 1.5 3.5 2.8 1.1 1.3 2 2.9 2.8 4.9.8 2 1.2 4.3 1.2 7.1 0 3.8-.7 7.9-2 12.2-1.3 4.3-3.1 8-5.4 10.9 1.8-.3 3.5-.6 5.2-.9 1.7-.3 3.4-.6 5.2-.9 2.1 0 3.2.9 3.2 2.7 0 .9-.8 1.7-2.4 2.3-1.6.7-3.5 1.3-5.8 1.8-2.2.5-4.5.9-6.9 1.3-2.3.3-4.2.6-5.5.8-3 2-6 3-9 3-.8 0-1.6 0-2.3-.1-.8-.1-1.6-.1-2.3-.3-.9 2.2-1.8 3.7-2.8 4.5-1 .8-2.1 1.2-3.3 1.2-1.2 0-2.5-.5-3.8-1.6-1.3-1.1-1.9-3-1.9-5.9 0-3.5.4-8.5 1.2-15.2.8-6.7 1.9-14 3.3-21.9 1.4-7.9 3.2-16 5.4-24.3 2.1-8.3 4.5-15.8 7.3-22.5 2.7-6.7 5.7-12.3 9-16.6 3.3-4.3 6.9-6.4 10.8-6.4 2.7 0 5 1 7 3s3 4.5 3 7.4c0 5-.6 9.8-1.8 14.5-1.5 4.5-3.4 8.9-6.1 13.2zm-11 31.8c-.7 0-1.8 1.4-3.3 4.1-1.6 2.7-3.2 5.9-4.9 9.4-1.7 3.5-3.1 6.9-4.3 10.3-1.2 3.3-1.8 5.6-1.8 6.9 0 .3.1.6.2.7l6.5-.8c1-.6 2.1-1.4 3.3-2.7 1.2-1.2 2.4-2.8 3.4-4.8 1.1-2 2-4.2 2.7-6.9.7-2.6 1.1-5.6 1.1-9 0-1.7-.2-3.1-.6-4.4-.4-1.3-1.1-2.2-2.1-2.8h-.2zm-13.9 27.4c0-.1 0-.2.1-.3.1-.1.1-.1.1-.3l-.2.3c0 .1-.1.2-.2.2h.2zm22.2-87.8c-2.6 2.1-4.8 4.8-6.8 8s-3.6 6.8-5 10.7c-1.4 3.9-2.6 8-3.7 12.3-1.1 4.3-2 8.6-2.8 12.8 2.7-2.9 5.2-5.9 7.7-8.9s4.6-6.2 6.5-9.5c1.2-2.1 2.2-4.1 2.8-5.9.7-1.8 1.2-3.6 1.5-5.4.3-1.7.6-3.5.7-5.4.1-1.9.2-4 .3-6.2-.1-.3-.2-.9-.2-1.7 0-.3-.1-.7-.2-1-.2 0-.5.1-.8.2z" class="st1"/>
  <path d="M498.9 168.1c0 .1.1.2.2.3 4.9-2.2 10.1-4.1 15.5-5.7 5.4-1.6 10.7-3 15.8-4.2 2.1 0 3.2.9 3.2 2.7 0 1-.6 1.8-1.7 2.5-3.6 1.4-7.1 2.9-10.5 4.4-3.5 1.5-6.9 3.1-10.4 4.8 1 1.7 1.5 3.6 1.5 5.7 0 1.7-.4 3.8-1.2 6.4-.8 2.6-1.9 5.2-3.3 7.8-1.4 2.6-3.2 4.9-5.3 7.1-2.1 2.2-4.5 3.8-7.2 4.8-1.1.4-2.3.7-3.6.7-1.3 0-2.6.1-3.9.3-1.9-.2-3.7-1.4-5.3-3.6-1.6-2.2-2.4-4.8-2.4-7.8 0-2.3.5-5.2 1.6-8.6 1.1-3.4 2.4-6.7 3.9-9.9 1.6-3.2 3.2-5.9 4.9-8.2 1.7-2.3 3.3-3.4 4.8-3.4 1 0 1.8.5 2.5 1.5l.8 2.2v.2zm-1.3 10.2c-1.9-1-3-2.3-3.3-3.8-1.6 3.2-2.6 6.7-3.2 10.3-.6 3.6-.8 7.2-.8 10.6 1.8-.2 3.4-1.1 4.9-2.8 1.4-1.6 2.7-3.4 3.7-5.3s1.8-3.7 2.4-5.4.9-2.6.9-2.8v-.3c-.7-.2-1.4-.3-2.3-.3-1.1.1-1.8.1-2.3-.2z" class="st1"/>
  <path d="M534.2 166.1c.1 1.3.2 2.7.3 4 .1 1.3.2 2.7.2 4 0 .3 0 .7-.1 1.1-.1.4-.1.8-.1 1.3.8-1.4 1.8-3.3 3.2-5.4 1.3-2.2 2.8-4.3 4.3-6.3s3-3.7 4.5-5.2c1.5-1.4 2.8-2.2 3.9-2.2 2.7 0 4.6.7 5.7 2.2 1.1 1.4 1.7 2.8 1.7 4.2 0 4.8-.4 9.5-1.3 14.1s-1.3 9.3-1.3 14c0 1.2 0 2.5.1 3.7.1 1.2.2 2.5.4 3.7l2.7 2 9.2-2.8c.7-.2 1.1-.3 1.3-.3 1.9 0 2.8.9 2.8 2.7 0 .8-.6 1.6-1.8 2.5-1.2.9-2.5 1.7-4.1 2.4-1.6.7-3.2 1.3-4.8 1.8-1.6.4-2.9.7-3.8.7-3.1 0-5.8-1.6-8.1-4.9-2.3-3.2-3.4-7.8-3.4-13.7 0-2.3.1-4.6.3-6.9.2-2.2.4-4.1.7-5.7-2.1 2.8-4 5.7-5.7 8.9-1.7 3.1-3.3 6.2-4.9 9.4-.6 1-1.1 2.2-1.7 3.6-.6 1.4-1.2 2.7-1.9 3.9-.7 1.2-1.6 2.3-2.6 3.1-1 .8-2.2 1.3-3.5 1.3-1.2 0-2.2-.4-3-1.2-.8-.8-1.3-1.9-1.5-3.5 0-2 .2-4.2.7-6.4.4-2.3 1-4.6 1.6-6.9.6-2.3 1.3-4.5 1.9-6.6.7-2.1 1.2-4.1 1.7-6v-.2c.1-1 .2-2.2.3-3.6.1-1.4.2-2.7.3-4 .2-1.3.4-2.4.8-3.3.4-.9 1.1-1.3 2.1-1.3 1.4 0 2.3.7 2.7 2h.2z" class="st1"/>
</svg>
