<svg version="1.2" baseProfile="tiny" xmlns="http://www.w3.org/2000/svg" viewBox="0 0 600 262.5" overflow="visible" xml:space="preserve"><path d="M357.9 45.7c0-.6.2-1.2.6-1.5.4-.4.8-.5 1.3-.5.7 0 1.2.5 1.4 1.4l.1 3.3 4.1-4.9a37.8 37.8 0 0 1 9.6-7.6c1.7-.8 3.5-1.2 5.3-1.2 1.1 0 2.2.2 3.4.6a14 14 0 0 1 8 5.8c1.5 2.6 2.3 5.4 2.3 8.4 0 2.5-.4 5-1.1 7.5a44.4 44.4 0 0 1-6.3 13.2 21.1 21.1 0 0 1-3.5 4 18.8 18.8 0 0 1-10.5 4.1c-1.3 0-2.6-.2-3.8-.7s-2.4-1.4-3.4-2.6c.1-.6.3-1.1.6-1.5.3-.4.7-.6 1.2-.6s1 .3 1.4.9a13.3 13.3 0 0 0 3.8.7c1.9 0 3.7-.5 5.3-1.6a19 19 0 0 0 4.5-4 35.7 35.7 0 0 0 6.6-14.3l.3-3.9c0-2.9-.6-5.3-1.8-7.1a6 6 0 0 0-5.2-2.8c-1.8 0-3.6.5-5.4 1.5s-3.6 2.2-5.3 3.8a41 41 0 0 0-8.8 11.3l.8 7.9a83.2 83.2 0 0 1-.3 16.6c-.4 3.1-1.1 5.8-2 8.3-.9 2.4-2 4.4-3.4 5.9a6.5 6.5 0 0 1-5 2.2c-2.6 0-4.4-1-5.3-3.1-.9-2.1-1.4-5-1.4-8.7a52.2 52.2 0 0 1 1-9.6 65 65 0 0 1 2.2-6.2c.8-2 1.8-3.9 2.7-5.8l3.1-5.8 3.4-6.2-.1-3.6c-.3-1.1-.3-2.3-.4-3.6zm.1 33.8.2-3.5.2-3 .2-2.8.1-3.1v-2.9a50.3 50.3 0 0 0-7.2 18.2 28 28 0 0 0-.8 6.4 9 9 0 0 0 .5 3.4c.3.7.7 1.1 1.2 1.1s1-.4 1.7-1.2c.6-.8 1.3-1.8 1.8-3.1.6-1.3 1-2.7 1.5-4.4.2-1.5.5-3.2.6-5.1zM384.4 87.9H384.1c-.5 0-.9-.2-1.2-.5a2 2 0 0 1-.4-1.2c0-.6.2-1.1.7-1.5l2.3-4.5 2.9-6 2.8-5.9 2.1-4c.5-.5 1.1-.8 1.9-.8.6 0 1.2.2 1.9.6l3.3 4.5c.9 1.3 1.7 2.4 2.2 3.5a11.5 11.5 0 0 1 1.7 6.4c0 1.4-.2 3-.5 4.8l-1.3 6.7c1.6-.3 3.1-.8 4.6-1.4l4.5-1.8.8-.2c.5 0 .9.2 1.2.5.3.3.4.7.4 1.1 0 .5-.5 1.1-1.5 1.8a51.9 51.9 0 0 1-11 5.5h-1c-1.2 0-2.1-.6-2.8-1.7a6 6 0 0 1-1-3.2c0-1.1.2-2.2.5-3.3.3-1.1.6-2.2.7-3.3l.3-3.9c0-1.8-.2-3.4-.7-4.9-.5-1.5-1.2-3.1-2.3-4.9l-1.2 2-1.7 3.3a146.6 146.6 0 0 1-6 10.6c-.9 1-1.4 1.5-1.9 1.7z"/><path d="m429.1 72.7-2.1 4.1a25 25 0 0 1-5.6 6.9c-1.1.9-2.4 1.5-3.8 1.9 0 1.4.2 2.7.6 4 .4 1.3 1.2 2 2.4 2l1-.1 1.2-.6 1.7-1.1 2.4-1.8 2.5-2.2c.8-.8 1.4-1.6 1.8-2.5.2-.5.5-.7.9-.7.5 0 .9.2 1.3.6.4.4.6.8.6 1.4 0 .5-.4 1.2-1.2 2.1l-2.7 3-3.1 2.9c-1.1.9-1.9 1.5-2.5 1.8l-1.7.9c-.9.5-1.7.8-2.4.8-1.4 0-2.7-.3-3.7-.9-1-.6-1.9-1.4-2.6-2.3-.7-1-1.2-2.1-1.5-3.4-.3-1.3-.5-2.6-.5-3.9-.4-.2-.6-.6-.6-1.1 0-.5.2-.8.5-1.2l.1-2.4c.1-.8.2-1.6.5-2.5l1.6-4.9c.7-1.9 1.5-3.7 2.6-5.4 1-1.7 2.3-3.2 3.7-4.4a7.4 7.4 0 0 1 4.9-1.8c1.8 0 3.1.6 3.7 1.8.6 1.2 1 2.6 1 4.1l-.2 2.7a5 5 0 0 1-.8 2.2zm-4.6-4.1c-.7.5-1.3 1.3-1.9 2.3-.7 1-1.2 2.1-1.8 3.3l-1.5 3.6c-.5 1.2-.8 2.4-1.1 3.4.8-.7 1.8-2.1 2.9-4.1l1-1.7 1.1-2.2.9-2.4c.2-.8.4-1.5.4-2.2zM439.7 79.4l.7-6.3 1.1-6.2c-2.3.5-4 1-5 1.4a7 7 0 0 1-2.3.6c-.8 0-1.2-.5-1.2-1.6 0-1 .6-1.9 1.9-2.8 1.3-.9 2.7-1.7 4.4-2.4 1-.9 1.9-1.7 2.4-2.5.6-.7 1.1-1.5 1.5-2.3l1-2.7 1-3.5.7-2.9a30.4 30.4 0 0 1 3-7.6c.7-1 1.6-1.6 2.6-1.6s1.6.5 1.6 1.5l-.3 2.2-.8 3.7-1.3 5.5-1.6 7.7H455.4l2.9.1 2.4.5c.6.3 1 .7 1 1.3 0 .6-.6 1.1-1.7 1.5l-4 1.1-4.6.9-3.6.9c-.7 3.1-1.3 6.4-1.9 10a72 72 0 0 0-.8 10v1.6l.1 2 .2 1.8c.1.5.2.7.4.7.7 0 2.2-1.1 4.4-3.2s4.6-5.1 7.2-9.1c.3-.3.7-.5 1.2-.5s.8.1 1.2.4c.3.3.5.7.5 1.1a47 47 0 0 1-11.8 15.5 6.6 6.6 0 0 1-3.8 1.5c-1.1 0-2-.4-2.7-1.2a11 11 0 0 1-1.7-2.8 20 20 0 0 1-.9-3.5c-.2-1.2-.2-2.3-.2-3.3l.1-3.8.4-3.7z"/><path d="m462.2 79.4.7-6.3 1.1-6.2c-2.3.5-4 1-5 1.4a7 7 0 0 1-2.3.6c-.8 0-1.2-.5-1.2-1.6 0-1 .6-1.9 1.9-2.8 1.3-.9 2.7-1.7 4.4-2.4 1-.9 1.9-1.7 2.4-2.5.6-.7 1.1-1.5 1.5-2.3l1-2.7 1-3.5.7-2.9a30.4 30.4 0 0 1 3-7.6c.7-1 1.6-1.6 2.6-1.6s1.6.5 1.6 1.5l-.3 2.2-.8 3.7-1.3 5.5-1.6 7.7H477.9l2.9.1 2.4.5c.6.3 1 .7 1 1.3 0 .6-.6 1.1-1.7 1.5l-4 1.1-4.6.9-3.6.9c-.7 3.1-1.3 6.4-1.9 10a72 72 0 0 0-.8 10v1.6l.1 2 .2 1.8c.1.5.2.7.4.7.7 0 2.2-1.1 4.4-3.2s4.6-5.1 7.2-9.1c.3-.3.7-.5 1.2-.5s.8.1 1.2.4c.3.3.5.7.5 1.1A47 47 0 0 1 471 96.2a6.6 6.6 0 0 1-3.8 1.5c-1.1 0-2-.4-2.7-1.2a11 11 0 0 1-1.7-2.8c-.4-1.1-.7-2.3-.9-3.5s-.2-2.3-.2-3.3l.1-3.8.4-3.7z"/><path d="M482.3 70.1c.1-.5.3-.9.6-1.2.3-.3.6-.4 1-.4 1 0 1.6.7 1.6 2.2 0 1.9-.1 3.8-.4 5.7-.3 1.9-.4 3.8-.4 5.8v2l.3 2c1.6-1.3 2.9-2.7 3.8-4.2a35.8 35.8 0 0 0 4.1-10l1.8-5.4c.6-1.1 1.5-1.7 2.6-1.7s1.8.5 2.1 1.4c.3.9.5 2.2.5 3.8l-.1 5.3-.1 5.3v1.9c1.8-1 3.6-1.9 5.7-2.8 2-.9 3.9-1.3 5.8-1.3.8 0 1.5.1 2.1.4s.9.9.9 1.7c0 .7-.2 1.3-.5 1.6-.4.4-.7.5-1.1.5-.7 0-1.2-.3-1.4-1h-.6A43.3 43.3 0 0 0 500 87V92.7c0 4.1-.2 8.1-.6 12.1-.4 4-1.3 8-2.6 12.1-.5 1.4-1 2.9-1.8 4.3-.7 1.5-1.6 2.8-2.5 4-1 1.2-2.1 2.2-3.4 3a7.9 7.9 0 0 1-4.2 1.2c-1.7 0-3.2-.4-4.4-1.2a11.8 11.8 0 0 1-5.3-7.2c-.5-1.6-.7-3.1-.7-4.6a31 31 0 0 1 5.8-17.7c1.8-2.5 3.9-4.7 6.2-6.8 2.4-2.1 4.9-4 7.6-5.8v-1.9l.1-1.8-.5.6-.9 1.5-1.1 1.7-.9 1.1-3.6 2.5c-.7.5-1.4.7-2.1.7-.9 0-1.6-.2-2.2-.6-.6-.4-1-1-1.3-1.7-.3-.7-.5-1.4-.6-2.3l-.1-2.5c0-2.3.2-4.5.7-6.8l.7-6.5zm11.5 32.2.3-7.5v-3.2c-4.2 3.3-7.5 7-9.9 11-2.4 4-3.8 8.4-4 13.2l.2 2.2c.2.9.4 1.8.8 2.6s.8 1.5 1.4 2.1c.6.6 1.3.9 2.1.9.9 0 1.7-.3 2.3-.9.6-.6 1.2-1.4 1.7-2.2s.9-1.8 1.3-2.7l.8-2.4 1.8-6 1.2-7.1z"/><g fill="#BE1622"><path d="M74.6 72.6c0 .7-.1 1.3-.3 1.6l-.5 1.1-1.9 8.5c-.5 2.8-1.2 5.6-1.9 8.5 2.7-4.1 5.6-8.9 8.6-14.3S85.1 67.5 89 62.8c3.9-4.8 8.2-8.8 13.1-12.1 4.8-3.3 10.4-5 16.7-5a22.1 22.1 0 0 1 18.5 9.3c2 2.8 3.4 5.9 4.3 9.4.9 3.5 1.3 7 1.3 10.6 0 8.1-1.9 16.5-5.7 25.2a99.7 99.7 0 0 1-16.2 25.2 24.7 24.7 0 0 1 17.2 10.1c2.3 3.1 4.2 7 5.7 11.4a54 54 0 0 1-4.5 41.2 90.8 90.8 0 0 1-15.6 21.5 70.4 70.4 0 0 1-48.7 18.3c-7.4 0-14-1.3-19.8-4a51.7 51.7 0 0 1-24.5-23.5 32.8 32.8 0 0 1-3.4-13.6c0-3.6 1-6.7 3.1-9.3a10.9 10.9 0 0 1 12.5-3.1l3.9-16.7c1.3-5.6 2.7-11.1 4.2-16.7l-.5 2.7a644 644 0 0 0 6.8-35.3c2.1-12.7 4.9-25.3 8.5-37.7a7 7 0 0 1 2-2.2c.8-.5 1.5-.8 2-.8 2.2 0 3.7 1.3 4.6 4v.9zM37.7 184a7 7 0 0 0-.3 2.4c0 2.3.6 5 1.9 8.1l2.2-12.7-3.8 2.2zm12.6 24.2a43.2 43.2 0 0 0 46 4 57.4 57.4 0 0 0 34.4-51.9c0-5.7-1.2-10.5-3.6-14.1-2.4-3.7-6-5.5-10.6-5.5-5.6 0-12.5 3.1-20.7 9.2-.9.7-1.8 1.2-2.7 1.3l-2.4.3c-2.3 0-4.2-.7-5.5-2.2a8 8 0 0 1-2-5.7l.3-2.4c.2-.9.6-1.8 1.3-2.7 4.5-4.3 8.7-8 12.8-11.2 4-3.1 7.7-6.4 10.9-9.7a61.2 61.2 0 0 0 15.1-27l1.1-5.8a32 32 0 0 0-.8-14.3c-.9-2.6-2.6-4.9-5.1-6.9-3.2.4-6.5 1.9-9.8 4.7-3.3 2.8-6.4 6-9.3 9.7-2.9 3.7-5.5 7.4-7.8 11.3-2.3 3.9-4.1 7-5.4 9.6a357.7 357.7 0 0 0-21.3 52.7c-2.7 8.5-5.1 17.3-7.3 26.4l-6.7 28.9-.9 1.3zM166.9 129.6c1.1-1.8 2.4-2.7 4-2.7 1.1 0 2.1.4 3 1.2.9.8 1.3 1.9 1.3 3.4l-.5 2.2c-2.2 6.6-4.1 14.6-5.9 23.8a140 140 0 0 0-2.7 26.8 59 59 0 0 0 1.9 16.2l4.3-2.7v-.3c1.6-2.5 3.7-4.9 6.2-7.3 2.5-2.3 4.6-4.8 6.2-7.3a96 96 0 0 0 5.7-10.1l5.8-11.6c1.9-3.7 3.8-6.8 5.8-9.4 2-2.6 4-3.9 6.2-3.9 2 0 3.7.8 5.1 2.3a8.6 8.6 0 0 1 2.2 6.1c0 3.1-.4 6.9-1.2 11.6a87.8 87.8 0 0 0-.4 25.5c.4 2 .8 3.7 1.3 5.1.5 1.4 1.3 2.2 2.2 2.2 1.3 0 2.8-.7 4.6-2a9 9 0 0 1 5.1-2c.9 0 1.6.5 2 1.5l.7 2c0 1.6-.6 3.1-1.9 4.3a23.8 23.8 0 0 1-9.1 5.6c-1.6.4-2.9.7-3.8.7-2.5 0-4.6-.9-6.3-2.6a20.7 20.7 0 0 1-4.2-6.1 31.3 31.3 0 0 1-2.4-7.1l-1.3-5.5a57.5 57.5 0 0 1-6.3 9.8 79.7 79.7 0 0 1-8.3 9c-3 2.7-6.1 4.9-9.4 6.6a21 21 0 0 1-9.6 2.6 13.7 13.7 0 0 1-10.6-5.2 23.3 23.3 0 0 1-3.8-7.4c-1-3-1.5-6.8-1.5-11.3 0-4.5.5-9.8 1.5-15.9a208.4 208.4 0 0 1 9.1-35.8c1.6-5.5 3.4-9.6 5-12.3zM237.7 168.9a318.7 318.7 0 0 1 5.1-34.5 97.4 97.4 0 0 0-13.9 3.8 19 19 0 0 1-6.3 1.6c-2.2 0-3.2-1.4-3.2-4.3 0-2.7 1.7-5.2 5.2-7.7 3.5-2.4 7.6-4.6 12.2-6.6 2.9-2.5 5.1-4.8 6.7-6.9a37.9 37.9 0 0 0 6.7-13.9l2.7-9.7a107 107 0 0 0 2-7.9c.8-3.7 1.9-7.4 3.2-11.2 1.3-3.8 3-7.1 5-10 2-2.9 4.4-4.3 7.3-4.3 2.9 0 4.3 1.3 4.3 4 0 1.4-.3 3.5-.8 6.1l-2.3 10.1a600.1 600.1 0 0 0-7.9 36.6l5.1-.1 4.8-.1h7.1c2.8 0 5.5.1 8.1.4 2.6.3 4.8.8 6.6 1.5 1.8.7 2.7 1.9 2.7 3.5s-1.6 3-4.7 4a89.5 89.5 0 0 1-11 3l-12.8 2.6a61 61 0 0 0-10 2.6c-2 8.6-3.7 17.8-5.1 27.6a196.5 196.5 0 0 0-2.1 31.9l.3 5.5.5 4.8c.3 1.3.7 2 1.2 2 2 0 6.1-2.9 12.2-8.7 6.2-5.8 12.8-14.2 19.8-25.2.9-.9 2-1.3 3.2-1.3 1.3 0 2.3.4 3.2 1.2.9.8 1.3 1.8 1.3 3.1 0 .9-.5 2-1.3 3.2a157.4 157.4 0 0 1-19.9 29.1 74.4 74.4 0 0 1-11.3 10.2c-3.8 2.7-7.3 4-10.5 4a9.5 9.5 0 0 1-7.4-3.2 27.2 27.2 0 0 1-4.6-7.8A63.6 63.6 0 0 1 236 189c0-3.6.1-7.1.4-10.5.6-3.3.9-6.5 1.3-9.6z"/><path d="M299.9 168.9a318.7 318.7 0 0 1 5.1-34.5 97.4 97.4 0 0 0-13.9 3.8 19 19 0 0 1-6.3 1.6c-2.2 0-3.2-1.4-3.2-4.3 0-2.7 1.7-5.2 5.2-7.7 3.5-2.4 7.6-4.6 12.2-6.6 2.9-2.5 5.1-4.8 6.7-6.9a37.9 37.9 0 0 0 6.7-13.9l2.7-9.7a107 107 0 0 0 2-7.9c.8-3.7 1.9-7.4 3.2-11.2s3-7.1 5-10c2-2.9 4.4-4.3 7.3-4.3 2.9 0 4.3 1.3 4.3 4 0 1.4-.3 3.5-.8 6.1l-2.3 10.1a600.1 600.1 0 0 0-7.9 36.6l5.1-.1 4.8-.1h7.1c2.8 0 5.5.1 8.1.4 2.6.3 4.8.8 6.6 1.5 1.8.7 2.7 1.9 2.7 3.5s-1.6 3-4.7 4a89.5 89.5 0 0 1-11 3l-12.8 2.6a61 61 0 0 0-10 2.6c-2 8.6-3.7 17.8-5.1 27.6a196.5 196.5 0 0 0-2.1 31.9l.3 5.5.5 4.8c.3 1.3.7 2 1.2 2 2 0 6.1-2.9 12.2-8.7 6.2-5.8 12.8-14.2 19.8-25.2.9-.9 2-1.3 3.2-1.3 1.3 0 2.3.4 3.2 1.2.9.8 1.3 1.8 1.3 3.1 0 .9-.5 2-1.3 3.2a157.4 157.4 0 0 1-19.9 29.1 74.4 74.4 0 0 1-11.3 10.2c-3.8 2.7-7.3 4-10.5 4a9.5 9.5 0 0 1-7.4-3.2 27.2 27.2 0 0 1-4.6-7.8 63.6 63.6 0 0 1-3.1-18.9c0-3.6.1-7.1.4-10.5.6-3.3.9-6.5 1.3-9.6z"/><path d="M375.5 146.3c0 .2.1.4.3.5 7.9-3.6 16.2-6.6 24.9-9.2 8.7-2.5 17.2-4.8 25.4-6.7 3.4 0 5.1 1.4 5.1 4.3 0 1.6-.9 3-2.7 4l-17 7.1c-5.6 2.4-11.1 5-16.7 7.7 1.6 2.7 2.4 5.7 2.4 9.2 0 2.7-.6 6.1-1.9 10.4-1.3 4.2-3 8.4-5.3 12.5a51.3 51.3 0 0 1-8.5 11.4 31.4 31.4 0 0 1-11.6 7.7c-1.8.7-3.7 1.1-5.8 1.1-2.1 0-4.2.2-6.3.5-3.1-.4-5.9-2.3-8.5-5.8a20.4 20.4 0 0 1-3.9-12.5c0-3.8.8-8.4 2.6-13.9a109.6 109.6 0 0 1 14.2-29.1c2.8-3.7 5.3-5.5 7.7-5.5 1.6 0 3 .8 4 2.4l1.3 3.5v.4zm-2.1 16.4c-3.1-1.6-4.8-3.7-5.4-6.2a58.3 58.3 0 0 0-5.1 16.6c-.9 5.8-1.3 11.5-1.3 17.1 2.9-.4 5.5-1.8 7.8-4.4 2.3-2.6 4.3-5.4 5.9-8.5a70.3 70.3 0 0 0 5.4-13.2v-.5c-1.1-.4-2.3-.5-3.8-.4-1.5 0-2.7-.1-3.5-.5z"/><path d="m432.3 143.1.5 6.5c.2 2.2.3 4.3.3 6.5l-.1 1.7-.1 2 5.1-8.7c2.2-3.5 4.4-6.9 6.9-10.1 2.4-3.2 4.8-6 7.3-8.3 2.4-2.3 4.5-3.5 6.3-3.5 4.3 0 7.4 1.2 9.2 3.5 1.8 2.3 2.7 4.6 2.7 6.7 0 7.7-.7 15.3-2.2 22.7a120.8 120.8 0 0 0-2.1 28.4c.1 2 .3 3.9.7 5.9l4.3 3.2 14.8-4.6c1.1-.4 1.8-.5 2.2-.5 3 0 4.6 1.4 4.6 4.3 0 1.3-.9 2.6-2.8 4a41 41 0 0 1-14.3 6.7c-2.6.7-4.6 1.1-6.1 1.1-5 0-9.4-2.6-13.1-7.8a37.8 37.8 0 0 1-5.5-22.1c0-3.8.2-7.4.5-11l1.1-9.2c-3.4 4.5-6.5 9.2-9.2 14.3a541.9 541.9 0 0 0-13.6 27.2c-1.2 2-2.6 3.6-4.2 5a8.8 8.8 0 0 1-5.7 2c-2 0-3.6-.6-4.8-1.9a9.1 9.1 0 0 1-2.4-5.7c0-3.2.4-6.7 1.1-10.4a225.6 225.6 0 0 1 5.7-21.6c1.1-3.4 2-6.6 2.7-9.7v-.3l.4-5.8.5-6.5c.3-2.1.7-3.8 1.3-5.2a3.4 3.4 0 0 1 3.4-2.2c2.3 0 3.8 1.1 4.3 3.2h.3z"/><path d="M491.8 178.4c-1.1 1.4-2.3 2.2-3.8 2.2-1.3 0-2.3-.4-3.1-1.3a5.1 5.1 0 0 1-1.2-3.5v-1.3c2.2-4.8 5-9.9 8.6-15.2 3.6-5.3 7.3-10.4 11-15.2l10.5-13.5c3.2-4.1 5.6-7.5 7-10.2 0-1.8 1-3 3.1-3.8 2.1-.7 3.5-1.1 4.2-1.1 2.2 0 3.9.7 5.2 2.2 1.3 1.4 2 3.6 2 6.5-2.5 9-3.8 17.9-3.8 26.6 0 4.7.4 9.2 1.3 13.5.9 4.3 2 8.8 3.2 13.5 5-2.5 10-4.8 14.9-7l14.7-6.5c1.1-.4 1.9-.5 2.4-.5 1.4 0 2.5.5 3.2 1.3.7.9 1.1 1.9 1.1 3 0 1.3-1.3 2.8-3.8 4.6a84.8 84.8 0 0 1-9 5.5l-11.2 5.8c-4 2-7.4 3.9-10.2 5.7 0 5.7-.9 10.6-2.6 14.7-1.7 4-3.9 7.3-6.5 9.8a25.4 25.4 0 0 1-17.1 7c-4.1 0-7.5-1.1-10.2-3.4a10.8 10.8 0 0 1-1.4-15.4 62.8 62.8 0 0 1 19.6-16.2l-3-18.3a109 109 0 0 1-1.3-17l-12.9 13.2c-4.2 4.2-7.9 9-10.9 14.3z"/></g></svg>